<svg width="60" height="60" viewBox="0 0 60 60" fill="none" xmlns="http://www.w3.org/2000/svg">
<path d="M37.4997 0H30V7.50026H37.4997V0Z" fill="#FFDC4C"/>
<path d="M44.9997 7.5H37.5V15.0003H44.9997V7.5Z" fill="#FFDC4C"/>
<path d="M37.4997 15H30V22.5003H37.4997V15Z" fill="#FFDC4C"/>
<path d="M44.9997 22.499H37.5V29.9993H44.9997V22.499Z" fill="#FFDC4C"/>
<path d="M52.4997 0H45V7.50026H52.4997V0Z" fill="#FFDC4C"/>
<path d="M59.9997 7.5H52.5V15.0003H59.9997V7.5Z" fill="#FFDC4C"/>
<path d="M52.4997 15H45V22.5003H52.4997V15Z" fill="#FFDC4C"/>
<path d="M59.9997 22.499H52.5V29.9993H59.9997V22.499Z" fill="#FFDC4C"/>
<path d="M7.49969 0H0V7.50026H7.49969V0Z" fill="#FFDC4C"/>
<path d="M14.9997 7.5H7.5V15.0003H14.9997V7.5Z" fill="#FFDC4C"/>
<path d="M7.49969 15H0V22.5003H7.49969V15Z" fill="#FFDC4C"/>
<path d="M14.9997 22.499H7.5V29.9993H14.9997V22.499Z" fill="#FFDC4C"/>
<path d="M22.4997 0H15V7.50026H22.4997V0Z" fill="#FFDC4C"/>
<path d="M29.9997 7.5H22.5V15.0003H29.9997V7.5Z" fill="#FFDC4C"/>
<path d="M22.4997 15H15V22.5003H22.4997V15Z" fill="#FFDC4C"/>
<path d="M29.9997 22.499H22.5V29.9993H29.9997V22.499Z" fill="#FFDC4C"/>
<path d="M37.4997 30H30V37.5003H37.4997V30Z" fill="#FFDC4C"/>
<path d="M44.9997 37.5H37.5V45.0003H44.9997V37.5Z" fill="#FFDC4C"/>
<path d="M37.4997 45H30V52.5003H37.4997V45Z" fill="#FFDC4C"/>
<path d="M44.9997 52.499H37.5V59.9993H44.9997V52.499Z" fill="#FFDC4C"/>
<path d="M52.4997 30H45V37.5003H52.4997V30Z" fill="#FFDC4C"/>
<path d="M59.9997 37.5H52.5V45.0003H59.9997V37.5Z" fill="#FFDC4C"/>
<path d="M52.4997 45H45V52.5003H52.4997V45Z" fill="#FFDC4C"/>
<path d="M59.9997 52.499H52.5V59.9993H59.9997V52.499Z" fill="#FFDC4C"/>
<path d="M7.49969 30H0V37.5003H7.49969V30Z" fill="#FFDC4C"/>
<path d="M14.9997 37.5H7.5V45.0003H14.9997V37.5Z" fill="#FFDC4C"/>
<path d="M7.49969 45H0V52.5003H7.49969V45Z" fill="#FFDC4C"/>
<path d="M14.9997 52.499H7.5V59.9993H14.9997V52.499Z" fill="#FFDC4C"/>
<path d="M22.4997 30H15V37.5003H22.4997V30Z" fill="#FFDC4C"/>
<path d="M29.9997 37.5H22.5V45.0003H29.9997V37.5Z" fill="#FFDC4C"/>
<path d="M22.4997 45H15V52.5003H22.4997V45Z" fill="#FFDC4C"/>
<path d="M29.9997 52.499H22.5V59.9993H29.9997V52.499Z" fill="#FFDC4C"/>
</svg>
