<svg width="60" height="60" viewBox="0 0 60 60" fill="none" xmlns="http://www.w3.org/2000/svg">
<path d="M45.0006 60L60 60L60 44.9993L45.0006 44.9993L45.0006 60Z" fill="#E94E1B"/>
<path d="M30.0006 45L45 45L45 29.9993L30.0006 29.9993L30.0006 45Z" fill="#E94E1B"/>
<path d="M45.0006 30.0007L60 30.0007L60 15L45.0006 15L45.0006 30.0007Z" fill="#E94E1B"/>
<path d="M30.0006 15.0007L45 15.0007L45 1.90735e-06L30.0006 1.43057e-06L30.0006 15.0007Z" fill="#E94E1B"/>
<path d="M15.0006 60L30 60L30 44.9993L15.0006 44.9993L15.0006 60Z" fill="#E94E1B"/>
<path d="M0.000603676 45L15 45L15 29.9993L0.000604153 29.9993L0.000603676 45Z" fill="#E94E1B"/>
<path d="M15.0006 30.0007L30 30.0007L30 15L15.0006 15L15.0006 30.0007Z" fill="#E94E1B"/>
<path d="M0.000603676 15.0007L15 15.0007L15 1.90735e-06L0.000604153 1.43057e-06L0.000603676 15.0007Z" fill="#E94E1B"/>
</svg>
