<svg width="60" height="60" viewBox="0 0 60 60" fill="none" xmlns="http://www.w3.org/2000/svg">
<path d="M14.9995 0L0 0L0 15.0008L14.9995 15.0008L14.9995 0Z" fill="black"/>
<path d="M29.9995 14.9995L15 14.9995L15 30.0003L29.9995 30.0003L29.9995 14.9995Z" fill="black"/>
<path d="M14.9995 29.9995L0 29.9995L0 45.0003L14.9995 45.0003L14.9995 29.9995Z" fill="black"/>
<path d="M29.9995 44.999L15 44.999L15 59.9998L29.9995 59.9998L29.9995 44.999Z" fill="black"/>
<path d="M44.9995 0L30 0L30 15.0008L44.9995 15.0008L44.9995 0Z" fill="black"/>
<path d="M59.9995 14.9995L45 14.9995L45 30.0003L59.9995 30.0003L59.9995 14.9995Z" fill="black"/>
<path d="M44.9995 29.9995L30 29.9995L30 45.0003L44.9995 45.0003L44.9995 29.9995Z" fill="black"/>
<path d="M59.9995 44.999L45 44.999L45 59.9998L59.9995 59.9998L59.9995 44.999Z" fill="black"/>
</svg>
