<svg width="61" height="60" viewBox="0 0 61 60" fill="none" xmlns="http://www.w3.org/2000/svg">
<path d="M45.5117 60L60.5007 60L60.5007 44.9993L45.5117 44.9993L45.5117 60Z" fill="#FFDC4C"/>
<path d="M30.5221 45L45.5111 45L45.5111 29.9993L30.5221 29.9993L30.5221 45Z" fill="#FFDC4C"/>
<path d="M45.5117 30.0007L60.5007 30.0007L60.5007 15.0001L45.5117 15.0001L45.5117 30.0007Z" fill="#FFDC4C"/>
<path d="M30.5221 15.0006L45.5111 15.0006L45.5111 -5.91278e-05L30.5221 -5.96049e-05L30.5221 15.0006Z" fill="#FFDC4C"/>
<path d="M15.5325 60L30.5215 60L30.5215 44.9993L15.5325 44.9993L15.5325 60Z" fill="#FFDC4C"/>
<path d="M0.542904 45L15.5319 45L15.5319 29.9993L0.542904 29.9993L0.542904 45Z" fill="#FFDC4C"/>
<path d="M15.5325 30.0007L30.5215 30.0007L30.5215 15.0001L15.5325 15.0001L15.5325 30.0007Z" fill="#FFDC4C"/>
<path d="M0.542904 15.0006L15.5319 15.0006L15.5319 -5.91278e-05L0.542904 -5.96049e-05L0.542904 15.0006Z" fill="#FFDC4C"/>
</svg>
