<svg width="61" height="60" viewBox="0 0 61 60" fill="none" xmlns="http://www.w3.org/2000/svg">
<path d="M60.5007 22.5011L60.5007 30.0007L53.0057 30.0007L53.0057 22.5011L60.5007 22.5011Z" fill="black"/>
<path d="M53.006 15.0011L53.006 22.5007L45.5109 22.5007L45.5109 15.0011L53.006 15.0011Z" fill="black"/>
<path d="M45.5111 22.5011L45.5111 30.0007L38.0161 30.0007L38.0161 22.5011L45.5111 22.5011Z" fill="black"/>
<path d="M38.0164 15.0011L38.0164 22.5007L30.5213 22.5007L30.5213 15.0011L38.0164 15.0011Z" fill="black"/>
<path d="M60.5007 7.50134L60.5007 15.001L53.0057 15.001L53.0057 7.50134L60.5007 7.50134Z" fill="black"/>
<path d="M53.006 0.00131178L53.006 7.50098L45.5109 7.50098L45.5109 0.00131169L53.006 0.00131178Z" fill="black"/>
<path d="M45.5111 7.50134L45.5111 15.001L38.0161 15.001L38.0161 7.50134L45.5111 7.50134Z" fill="black"/>
<path d="M38.0164 0.00131178L38.0164 7.50098L30.5213 7.50098L30.5213 0.00131169L38.0164 0.00131178Z" fill="black"/>
<path d="M60.5007 52.5003L60.5007 60L53.0057 60L53.0057 52.5003L60.5007 52.5003Z" fill="black"/>
<path d="M53.006 45.0004L53.006 52.5L45.5109 52.5L45.5109 45.0004L53.006 45.0004Z" fill="black"/>
<path d="M45.5111 52.5003L45.5111 60L38.0161 60L38.0161 52.5003L45.5111 52.5003Z" fill="black"/>
<path d="M38.0164 45.0004L38.0164 52.5L30.5213 52.5L30.5213 45.0004L38.0164 45.0004Z" fill="black"/>
<path d="M60.5007 37.5006L60.5007 45.0002L53.0057 45.0002L53.0057 37.5006L60.5007 37.5006Z" fill="black"/>
<path d="M53.006 30.0004L53.006 37.5L45.5109 37.5L45.5109 30.0004L53.006 30.0004Z" fill="black"/>
<path d="M45.5111 37.5006L45.5111 45.0002L38.0161 45.0002L38.0161 37.5006L45.5111 37.5006Z" fill="black"/>
<path d="M38.0164 30.0004L38.0164 37.5L30.5213 37.5L30.5213 30.0004L38.0164 30.0004Z" fill="black"/>
<path d="M30.5215 22.5011L30.5215 30.0007L23.0265 30.0007L23.0265 22.5011L30.5215 22.5011Z" fill="black"/>
<path d="M23.0268 15.0011L23.0268 22.5007L15.5317 22.5007L15.5317 15.0011L23.0268 15.0011Z" fill="black"/>
<path d="M15.532 22.5011L15.532 30.0007L8.03693 30.0007L8.03693 22.5011L15.532 22.5011Z" fill="black"/>
<path d="M8.03717 15.0011L8.03717 22.5007L0.542148 22.5007L0.542148 15.0011L8.03717 15.0011Z" fill="black"/>
<path d="M30.5215 7.50134L30.5215 15.001L23.0265 15.001L23.0265 7.50134L30.5215 7.50134Z" fill="black"/>
<path d="M23.0268 0.00131178L23.0268 7.50098L15.5317 7.50098L15.5317 0.00131169L23.0268 0.00131178Z" fill="black"/>
<path d="M15.532 7.50134L15.532 15.001L8.03693 15.001L8.03693 7.50134L15.532 7.50134Z" fill="black"/>
<path d="M8.03717 0.00131178L8.03717 7.50098L0.542148 7.50098L0.542148 0.00131169L8.03717 0.00131178Z" fill="black"/>
<path d="M30.5215 52.5003L30.5215 60L23.0265 60L23.0265 52.5003L30.5215 52.5003Z" fill="black"/>
<path d="M23.0268 45.0004L23.0268 52.5L15.5317 52.5L15.5317 45.0004L23.0268 45.0004Z" fill="black"/>
<path d="M15.532 52.5003L15.532 60L8.03693 60L8.03693 52.5003L15.532 52.5003Z" fill="black"/>
<path d="M8.03717 45.0004L8.03717 52.5L0.542148 52.5L0.542148 45.0004L8.03717 45.0004Z" fill="black"/>
<path d="M30.5215 37.5006L30.5215 45.0002L23.0265 45.0002L23.0265 37.5006L30.5215 37.5006Z" fill="black"/>
<path d="M23.0268 30.0004L23.0268 37.5L15.5317 37.5L15.5317 30.0004L23.0268 30.0004Z" fill="black"/>
<path d="M15.532 37.5006L15.532 45.0002L8.03693 45.0002L8.03693 37.5006L15.532 37.5006Z" fill="black"/>
<path d="M8.03717 30.0004L8.03717 37.5L0.542148 37.5L0.542148 30.0004L8.03717 30.0004Z" fill="black"/>
</svg>
