<svg width="60" height="60" viewBox="0 0 60 60" fill="none" xmlns="http://www.w3.org/2000/svg">
<path d="M60 15.0003L60 0.000976562L44.9994 0.000975907L44.9994 15.0003L60 15.0003Z" fill="#FFDC4C"/>
<path d="M45 30.0003L45 15.001L29.9994 15.001L29.9994 30.0003L45 30.0003Z" fill="#FFDC4C"/>
<path d="M30 15.0003L30 0.000976562L14.9994 0.000975907L14.9994 15.0003L30 15.0003Z" fill="#FFDC4C"/>
<path d="M15 30.0003L15 15.001L-0.000642776 15.001L-0.000643432 30.0003L15 30.0003Z" fill="#FFDC4C"/>
<path d="M60 44.9998L60 30.0005L44.9994 30.0005L44.9994 44.9998L60 44.9998Z" fill="#FFDC4C"/>
<path d="M45 59.9998L45 45.0005L29.9994 45.0005L29.9994 59.9998L45 59.9998Z" fill="#FFDC4C"/>
<path d="M30 44.9998L30 30.0005L14.9994 30.0005L14.9994 44.9998L30 44.9998Z" fill="#FFDC4C"/>
<path d="M15 59.9998L15 45.0005L-0.000642776 45.0005L-0.000643432 59.9998L15 59.9998Z" fill="#FFDC4C"/>
<path d="M60 29.9997L60 0.000976562L29.9992 0.000975251L29.9992 29.9997L60 29.9997Z" fill="black"/>
<path d="M30 59.9992L30 30.0005L-0.000797272 30.0005L-0.000798583 59.9992L30 59.9992Z" fill="black"/>
</svg>
