<svg width="18" height="12" viewBox="0 0 18 12" fill="none" xmlns="http://www.w3.org/2000/svg">
<path d="M16.2857 5.14286H14.5714V6.85714H16.2857V5.14286Z" fill="#020202"/>
<path d="M18 5.14286H16.2857V6.85714H18V5.14286Z" fill="#020202"/>
<path d="M14.5714 5.14286H12.8571V6.85714H14.5714V5.14286Z" fill="#020202"/>
<path d="M12.8571 5.14286H11.1429V6.85714H12.8571V5.14286Z" fill="#020202"/>
<path d="M11.1429 5.14286H9.42857V6.85714H11.1429V5.14286Z" fill="#020202"/>
<path d="M9.42857 5.14286H7.71429V6.85714H9.42857V5.14286Z" fill="#020202"/>
<path d="M7.71429 5.14286H6V6.85714H7.71429V5.14286Z" fill="#020202"/>
<path d="M6 5.14286H4.28572V6.85714H6V5.14286Z" fill="#020202"/>
<path d="M2.57143 5.14286H0.857145V6.85714H2.57143V5.14286Z" fill="#020202"/>
<path d="M4.28572 6.85714H2.57143V8.57143H4.28572V6.85714Z" fill="#020202"/>
<path d="M6 8.57143H4.28572V10.2857H6V8.57143Z" fill="#020202"/>
<path d="M7.71429 10.2857H6V12H7.71429V10.2857Z" fill="#020202"/>
<path d="M4.28572 3.42857H2.57143V5.14286H4.28572V3.42857Z" fill="#020202"/>
<path d="M6 1.71429H4.28572V3.42857H6V1.71429Z" fill="#020202"/>
<path d="M7.71429 0H6V1.71429H7.71429V0Z" fill="#020202"/>
</svg>
