<svg width="15" height="15" viewBox="0 0 15 15" fill="none" xmlns="http://www.w3.org/2000/svg">
<path d="M13.835 7.96296C13.661 7.96296 13.494 8.0321 13.371 8.15517C13.2479 8.27824 13.1788 8.44516 13.1788 8.61921V11.2609C13.1782 11.7711 12.9752 12.2603 12.6145 12.621C12.2537 12.9818 11.7645 13.1848 11.2543 13.1853H3.73695C3.22673 13.1848 2.73758 12.9818 2.3768 12.621C2.01602 12.2603 1.81308 11.7711 1.8125 11.2609V3.74354C1.81308 3.23333 2.01602 2.74417 2.3768 2.38339C2.73758 2.02261 3.22673 1.81967 3.73695 1.81909H6.37863C6.55268 1.81909 6.7196 1.74995 6.84267 1.62688C6.96574 1.50381 7.03488 1.33689 7.03488 1.16284C7.03488 0.988793 6.96574 0.821874 6.84267 0.698803C6.7196 0.575732 6.55268 0.506592 6.37863 0.506592H3.73695C2.87877 0.507605 2.05603 0.848965 1.4492 1.45579C0.842374 2.06262 0.501013 2.88536 0.5 3.74354V11.2609C0.501013 12.1191 0.842374 12.9418 1.4492 13.5486C2.05603 14.1555 2.87877 14.4968 3.73695 14.4978H11.2543C12.1125 14.4968 12.9352 14.1555 13.542 13.5486C14.1489 12.9418 14.4902 12.1191 14.4913 11.2609V8.61921C14.4913 8.44516 14.4221 8.27824 14.299 8.15517C14.176 8.0321 14.009 7.96296 13.835 7.96296Z" fill="#E94E1B"/>
<path d="M13.8211 0.502197H9.74137C9.56953 0.502164 9.40453 0.569538 9.28182 0.689843C9.15911 0.810148 9.08849 0.973784 9.08512 1.1456C9.07829 1.51392 9.38809 1.8147 9.75614 1.8147H12.2534L7.02696 7.04282C6.9039 7.16589 6.83476 7.33281 6.83476 7.50685C6.83476 7.68089 6.9039 7.8478 7.02696 7.97087C7.15003 8.09393 7.31694 8.16306 7.49098 8.16306C7.66502 8.16306 7.83194 8.09393 7.955 7.97087L13.1831 2.74438V5.25071C13.1831 5.42476 13.2523 5.59168 13.3753 5.71475C13.4984 5.83782 13.6653 5.90696 13.8394 5.90696C14.0134 5.90696 14.1803 5.83782 14.3034 5.71475C14.4265 5.59168 14.4956 5.42476 14.4956 5.25071V1.17649C14.4956 1.08792 14.4782 1.00022 14.4443 0.918389C14.4104 0.836562 14.3607 0.762215 14.298 0.699598C14.2354 0.63698 14.161 0.587317 14.0792 0.553447C13.9973 0.519576 13.9096 0.502161 13.8211 0.502197Z" fill="#E94E1B"/>
</svg>
