<svg width="21" height="20" viewBox="0 0 21 20" fill="none" xmlns="http://www.w3.org/2000/svg">
<g clip-path="url(#clip0_45_73834)">
<path d="M3.21751 15.8596L4.1014 14.9757L4.8085 15.6828L3.92462 16.5667L3.21751 15.8596Z" fill="black"/>
<path d="M3.39429 14.2686L15.7687 1.89425L17.89 4.01557L5.51561 16.3899L3.39429 14.2686Z" fill="black"/>
<path d="M16.4758 2.60135L17.3596 1.71747L18.0668 2.42458L17.1829 3.30846L16.4758 2.60135Z" fill="black"/>
<path d="M3.92462 1.71747L4.8085 2.60135L4.1014 3.30846L3.21751 2.42458L3.92462 1.71747Z" fill="black"/>
<path d="M5.51561 1.89425L17.89 14.2686L15.7687 16.3899L3.39429 4.01557L5.51561 1.89425Z" fill="black"/>
<path d="M17.1829 14.9757L18.0668 15.8596L17.3596 16.5667L16.4758 15.6828L17.1829 14.9757Z" fill="black"/>
</g>
<defs>
<clipPath id="clip0_45_73834">
<rect width="20" height="20" fill="white" transform="translate(0.5)"/>
</clipPath>
</defs>
</svg>
