<svg width="30" height="23" viewBox="0 0 30 23" fill="none" xmlns="http://www.w3.org/2000/svg">
<path d="M8.13281 13.7363H9.65908V15.2626H8.13281V13.7363Z" fill="black"/>
<path d="M8.13281 12.21H9.65908V13.7363H8.13281V12.21Z" fill="black"/>
<path d="M8.13281 10.6836H9.65908V12.21H8.13281V10.6836Z" fill="black"/>
<path d="M8.13281 9.15723H9.65908V10.6836H8.13281V9.15723Z" fill="black"/>
<path d="M9.65625 13.7363H11.1825V15.2626H9.65625V13.7363Z" fill="black"/>
<path d="M9.65625 12.21H11.1825V13.7363H9.65625V12.21Z" fill="black"/>
<path d="M9.65625 10.6836H11.1825V12.21H9.65625V10.6836Z" fill="black"/>
<path d="M9.65625 9.15723H11.1825V10.6836H9.65625V9.15723Z" fill="black"/>
<path d="M11.1875 13.7363H12.7138V15.2626H11.1875V13.7363Z" fill="black"/>
<path d="M11.1875 12.21H12.7138V13.7363H11.1875V12.21Z" fill="black"/>
<path d="M11.1875 10.6836H12.7138V12.21H11.1875V10.6836Z" fill="black"/>
<path d="M11.1875 9.15723H12.7138V10.6836H11.1875V9.15723Z" fill="black"/>
<path d="M12.7109 13.7363H14.2372V15.2626H12.7109V13.7363Z" fill="black"/>
<path d="M12.7109 12.21H14.2372V13.7363H12.7109V12.21Z" fill="black"/>
<path d="M12.7109 10.6836H14.2372V12.21H12.7109V10.6836Z" fill="black"/>
<path d="M12.7109 9.15723H14.2372V10.6836H12.7109V9.15723Z" fill="black"/>
<path d="M5.07812 1.52637H6.6044V3.05264H5.07812V1.52637Z" fill="black"/>
<path d="M5.07812 0H6.6044V1.52637H5.07812V0Z" fill="black"/>
<path d="M3.55469 0H5.08096V1.52627H3.55469V0Z" fill="black"/>
<path d="M2.02734 0H3.55361V1.52627H2.02734V0Z" fill="black"/>
<path d="M0.5 0H2.02627V1.52627H0.5V0Z" fill="black"/>
<path d="M14.2383 13.7363H15.7646V15.2626H14.2383V13.7363Z" fill="black"/>
<path d="M14.2383 12.21H15.7646V13.7363H14.2383V12.21Z" fill="black"/>
<path d="M14.2383 10.6836H15.7646V12.21H14.2383V10.6836Z" fill="black"/>
<path d="M14.2383 9.15723H15.7646V10.6836H14.2383V9.15723Z" fill="black"/>
<path d="M15.7656 13.7363H17.2919V15.2626H15.7656V13.7363Z" fill="black"/>
<path d="M15.7656 12.21H17.2919V13.7363H15.7656V12.21Z" fill="black"/>
<path d="M15.7656 10.6836H17.2919V12.21H15.7656V10.6836Z" fill="black"/>
<path d="M15.7656 9.15723H17.2919V10.6836H15.7656V9.15723Z" fill="black"/>
<path d="M17.2891 13.7363H18.8153V15.2626H17.2891V13.7363Z" fill="black"/>
<path d="M17.2891 12.21H18.8153V13.7363H17.2891V12.21Z" fill="black"/>
<path d="M17.2891 10.6836H18.8153V12.21H17.2891V10.6836Z" fill="black"/>
<path d="M17.2891 9.15723H18.8153V10.6836H17.2891V9.15723Z" fill="black"/>
<path d="M18.8125 13.7363H20.3388V15.2626H18.8125V13.7363Z" fill="black"/>
<path d="M18.8125 12.21H20.3388V13.7363H18.8125V12.21Z" fill="black"/>
<path d="M18.8125 10.6836H20.3388V12.21H18.8125V10.6836Z" fill="black"/>
<path d="M18.8125 9.15723H20.3388V10.6836H18.8125V9.15723Z" fill="black"/>
<path d="M20.3438 13.7363H21.87V15.2626H20.3438V13.7363Z" fill="black"/>
<path d="M20.3438 12.21H21.87V13.7363H20.3438V12.21Z" fill="black"/>
<path d="M20.3438 10.6836H21.87V12.21H20.3438V10.6836Z" fill="black"/>
<path d="M20.3438 9.15723H21.87V10.6836H20.3438V9.15723Z" fill="black"/>
<path d="M21.8673 13.7365H23.3936V15.2628H21.8673V13.7365Z" fill="black"/>
<path d="M21.8673 12.2103H23.3936V13.7365H21.8673V12.2103Z" fill="black"/>
<path d="M21.8673 10.6838H23.3936V12.2103H21.8673V10.6838Z" fill="black"/>
<path d="M21.8673 9.15753H23.3936V10.6838H21.8673V9.15753Z" fill="black"/>
<path d="M23.3936 13.7365L24.9208 13.7363V15.2626L23.3936 15.2628V13.7365Z" fill="black"/>
<path d="M23.3936 12.2103L24.9208 12.21V13.7363L23.3936 13.7365V12.2103Z" fill="black"/>
<path d="M23.3936 10.6838L24.9208 10.6836V12.21L23.3945 12.2099L23.3936 10.6838Z" fill="black"/>
<path d="M23.3936 9.15753L24.9208 9.15723V10.6836L23.3936 10.6838V9.15753Z" fill="black"/>
<path d="M24.9219 13.7363H26.4481V15.2626H24.9219V13.7363Z" fill="black"/>
<path d="M24.9219 12.21H26.4481V13.7363H24.9219V12.21Z" fill="black"/>
<path d="M26.4453 7.63135H27.9716V9.15762H26.4453V7.63135Z" fill="black"/>
<path d="M6.60547 7.63135H8.13174V9.15762H6.60547V7.63135Z" fill="black"/>
<path d="M24.9219 10.6836H26.4481V12.21H24.9219V10.6836Z" fill="black"/>
<path d="M26.4453 6.10498H27.9716V7.63135H26.4453V6.10498Z" fill="black"/>
<path d="M6.60547 6.10498H8.13174V7.63135H6.60547V6.10498Z" fill="black"/>
<path d="M24.9219 9.15723H26.4481V10.6836H24.9219V9.15723Z" fill="black"/>
<path d="M26.4453 4.5791H27.9716V6.10498H26.4453V4.5791Z" fill="black"/>
<path d="M6.60547 4.5791H8.13174V6.10498H6.60547V4.5791Z" fill="black"/>
<path d="M5.07812 3.05264L29.4985 3.05273V4.57901H5.07812V3.05264Z" fill="black"/>
<path d="M8.13281 4.5791H26.4481L26.4481 9.15723H8.13281V4.5791Z" fill="black"/>
<path d="M9.65631 16.7889H11.1826V18.3152H9.65631V16.7889Z" fill="black"/>
<path d="M9.65631 18.3152H11.1826V19.8416H9.65631V18.3152Z" fill="black"/>
<path d="M8.12897 18.3153H9.65524V19.8416H8.12897V18.3153Z" fill="black"/>
<path d="M9.65631 19.8416H11.1826V21.3679H9.65631V19.8416Z" fill="black"/>
<path d="M8.12897 19.8416H9.65524V21.3676H8.12897V19.8416Z" fill="black"/>
<path d="M9.65631 21.3679H11.1826V22.8943H9.65631V21.3679Z" fill="black"/>
<path d="M11.1798 16.7889H12.706V18.3152H11.1798V16.7889Z" fill="black"/>
<path d="M11.1798 18.3152H12.706V19.8416H11.1798V18.3152Z" fill="black"/>
<path d="M12.711 18.3153H14.2373V19.8416H12.711V18.3153Z" fill="black"/>
<path d="M11.1798 19.8416H12.706V21.3679H11.1798V19.8416Z" fill="black"/>
<path d="M12.711 19.8416H14.2373V21.3679H12.711V19.8416Z" fill="black"/>
<path d="M11.1798 21.3679H12.706V22.8943H11.1798V21.3679Z" fill="black"/>
<path d="M20.3439 16.7889H21.8702V18.3152H20.3439V16.7889Z" fill="black"/>
<path d="M20.3439 18.3152H21.8702V19.8416H20.3439V18.3152Z" fill="black"/>
<path d="M18.8167 18.3153L20.3439 18.3152V19.8416L18.8167 19.8416V18.3153Z" fill="black"/>
<path d="M20.3439 19.8416H21.8702V21.3679H20.3439V19.8416Z" fill="black"/>
<path d="M18.8167 19.8416L20.3439 19.8416V21.3679L18.8167 21.3676V19.8416Z" fill="black"/>
<path d="M20.3439 21.3679H21.8702V22.8943H20.3439V21.3679Z" fill="black"/>
<path d="M21.8673 16.7889H23.3936V18.3152H21.8673V16.7889Z" fill="black"/>
<path d="M21.8673 18.3152H23.3936V19.8416H21.8673V18.3152Z" fill="black"/>
<path d="M23.3986 18.3153H24.9249V19.8416H23.3986V18.3153Z" fill="black"/>
<path d="M21.8673 19.8416H23.3936V21.3679H21.8673V19.8416Z" fill="black"/>
<path d="M23.3986 19.8416H24.9249V21.3679H23.3986V19.8416Z" fill="black"/>
<path d="M21.8673 21.3679H23.3936V22.8943H21.8673V21.3679Z" fill="black"/>
<path d="M8.10547 6.08398H9.6264V7.60492H8.10547V6.08398Z" fill="#FFDC4C"/>
<path d="M9.625 7.60449H11.1459V9.12542H9.625V7.60449Z" fill="#FFDC4C"/>
<path d="M9.625 9.12542H11.1459V10.6464H9.625V9.12542Z" fill="#FFDC4C"/>
<path d="M9.625 10.6464H11.1459V12.1674H9.625V10.6464Z" fill="#FFDC4C"/>
<path d="M8.10547 4.5625H9.6264V6.08398H8.10547V4.5625Z" fill="#FFDC4C"/>
<path d="M9.625 4.5625H11.1459V6.08343H9.625V4.5625Z" fill="#FFDC4C"/>
<path d="M11.1484 4.5625H12.6694V6.08343H11.1484V4.5625Z" fill="#FFDC4C"/>
</svg>
