<svg width="25" height="24" viewBox="0 0 25 24" fill="none" xmlns="http://www.w3.org/2000/svg">
<path d="M10.7857 10.2857H14.2143V13.7143H10.7857V10.2857Z" fill="white"/>
<path d="M7.35714 13.7143H10.7857V17.1429H7.35714V13.7143Z" fill="white"/>
<path d="M3.92857 17.1429H7.35714V20.5714H3.92857V17.1429Z" fill="white"/>
<path d="M0.5 20.5714H3.92857V24H0.5V20.5714Z" fill="white"/>
<path d="M7.35714 6.85714H10.7857V10.2857H7.35714V6.85714Z" fill="white"/>
<path d="M3.92857 3.42857H7.35714V6.85714H3.92857V3.42857Z" fill="white"/>
<path d="M0.5 0H3.92857V3.42857H0.5V0Z" fill="white"/>
<path d="M14.2143 13.7143H10.7857V10.2857H14.2143V13.7143Z" fill="white"/>
<path d="M17.6448 10.2857H14.2143L14.2162 6.85714H17.6448V10.2857Z" fill="white"/>
<path d="M21.0734 6.85714H17.6448V3.42857H21.0734V6.85714Z" fill="white"/>
<path d="M24.502 3.42857H21.0734V0H24.502V3.42857Z" fill="white"/>
<path d="M17.6448 17.1429H14.2162L14.2143 13.7143H17.6448V17.1429Z" fill="white"/>
<path d="M21.0734 20.5714H17.6448V17.1429H21.0734V20.5714Z" fill="white"/>
<path d="M24.502 24H21.0734V20.5714H24.502V24Z" fill="white"/>
</svg>
