<svg width="17" height="23" viewBox="0 0 17 23" fill="none" xmlns="http://www.w3.org/2000/svg">
<path d="M9.64286 2.28571L9.64286 4.57143L7.35714 4.57143L7.35714 2.28571L9.64286 2.28571Z" fill="white"/>
<path d="M9.64286 -2.99735e-07L9.64286 2.28571L7.35714 2.28571L7.35714 -3.99647e-07L9.64286 -2.99735e-07Z" fill="white"/>
<path d="M9.64286 4.57143L9.64286 6.85714L7.35714 6.85714L7.35714 4.57143L9.64286 4.57143Z" fill="white"/>
<path d="M9.64286 6.85714L9.64286 9.14286L7.35714 9.14286L7.35714 6.85714L9.64286 6.85714Z" fill="white"/>
<path d="M9.64286 9.14286L9.64286 11.4286L7.35714 11.4286L7.35714 9.14286L9.64286 9.14286Z" fill="white"/>
<path d="M9.64286 11.4286L9.64286 13.7143L7.35714 13.7143L7.35714 11.4286L9.64286 11.4286Z" fill="white"/>
<path d="M9.64286 13.7143L9.64286 16L7.35714 16L7.35714 13.7143L9.64286 13.7143Z" fill="white"/>
<path d="M9.64286 16L9.64286 18.2857L7.35714 18.2857L7.35714 16L9.64286 16Z" fill="white"/>
<path d="M9.64286 20.5714L9.64286 22.8571L7.35714 22.8571L7.35714 20.5714L9.64286 20.5714Z" fill="white"/>
<path d="M7.35714 18.2857L7.35714 20.5714L5.07143 20.5714L5.07143 18.2857L7.35714 18.2857Z" fill="white"/>
<path d="M5.07143 16L5.07143 18.2857L2.78571 18.2857L2.78571 16L5.07143 16Z" fill="white"/>
<path d="M2.78571 13.7143L2.78571 16L0.499999 16L0.499999 13.7143L2.78571 13.7143Z" fill="white"/>
<path d="M11.9286 18.2857L11.9286 20.5714L9.64286 20.5714L9.64286 18.2857L11.9286 18.2857Z" fill="white"/>
<path d="M14.2143 16L14.2143 18.2857L11.9286 18.2857L11.9286 16L14.2143 16Z" fill="white"/>
<path d="M16.5 13.7143L16.5 16L14.2143 16L14.2143 13.7143L16.5 13.7143Z" fill="white"/>
</svg>
