<svg width="18" height="22" viewBox="0 0 18 22" fill="none" xmlns="http://www.w3.org/2000/svg">
<path d="M15.0451 0.0908203V1.18173H16.136V5.54537H15.0451V4.45446H13.9542V2.27264H3.0451V19.7272H13.9542V17.5454H15.0451V16.4545H16.136V20.8181H15.0451V21.909H1.95419V20.8181H0.863281V1.18173H1.95419V0.0908203H15.0451ZM10.6815 5.54537H12.8633V6.63627H13.9542V7.72718H15.0451V8.81809H16.136V9.909H17.2269V12.0908H16.136V13.1817H15.0451V14.2726H13.9542V15.3635H12.8633V16.4545H10.6815V14.2726H11.7724V13.1817H12.8633V12.0908H5.22692V9.909H12.8633V8.81809H11.7724V7.72718H10.6815V5.54537Z" fill="#E94E1B"/>
</svg>
