<svg width="29" height="16" viewBox="0 0 29 16" fill="none" xmlns="http://www.w3.org/2000/svg">
<path d="M13 4H12V3H13V4ZM12 8H13V9H16V8H17V7H18V4H17V3H16V2H13V3H15V4H13V6H12V4H11V7H12V8ZM11 11H10V12H11V11ZM19 12V11H18V10H11V11H14V12H11V13H10V12H9V15H10V16H19V15H20V12H19ZM4 1H3V2H4V1ZM3 6H4V7H7V6H8V5H9V2H8V1H7V0H4V1H6V2H4V4H3V2H2V5H3V6ZM2 9H1V10H2V9ZM22 1H21V2H22V1ZM21 6H22V7H25V6H26V5H27V2H26V1H25V0H22V1H24V2H22V4H21V2H20V5H21V6ZM20 9H19V10H20V9ZM28 10V9H27V8H20V9H23V10H20V11V12H21V14H28V13H29V10H28ZM10 11V10V9H9V8H2V9H5V10H2V11H1V10H0V13H1V14H8V12H9V11H10Z" fill="black"/>
</svg>
