<svg width="33" height="32" viewBox="0 0 33 32" fill="none" xmlns="http://www.w3.org/2000/svg">
<path d="M27.5769 24.6154V27.0769H30.0385V22.1538H27.5769V24.6154ZM22.6538 29.5385H27.5769V27.0769H22.6538V29.5385ZM10.3462 4.92308V2.46154H5.42308V4.92308H7.88461H10.3462ZM5.42308 4.92308H2.96154V9.84615H5.42308V4.92308ZM2.96154 22.1538H0.5V9.84615H2.96154V17.2308H5.42308V9.84615H7.88461V7.38461H10.3462V4.92308H17.7308V2.46154H10.3462V0H22.6538V2.46154H27.5769V4.92308H30.0385V9.84615H32.5V22.1538H30.0385V19.6923H27.5769V22.1538H25.1154V24.6154H22.6538V27.0769H20.1923V29.5385H22.6538V32H10.3462V29.5385H5.42308V27.0769H2.96154V22.1538H5.42308V19.6923H2.96154V22.1538ZM7.88461 19.6923H10.3462V22.1538H12.8077V19.6923H15.2692V17.2308H17.7308V14.7692H20.1923V12.3077H22.6538V9.84615H20.1923V12.3077H17.7308V14.7692H15.2692V17.2308H12.8077V19.6923H10.3462V17.2308H7.88461V19.6923Z" fill="black"/>
</svg>
