<svg width="16" height="16" viewBox="0 0 16 16" fill="none" xmlns="http://www.w3.org/2000/svg">
<path d="M3.69231 3.69231H2.46154V2.46154H3.69231V3.69231ZM16 6.15385V9.84615H14.7692V12.3077H13.5385V13.5385H12.3077V14.7692H9.84615V16H6.15384V14.7692H3.69231V13.5385H2.46154V12.3077H1.23077V9.84615H0V6.15385H1.23077V7.38462V8.61539H2.46154V7.38462V6.15385H3.69231V3.69231H6.15384V2.46154H7.38461H8.61538V1.23077H7.38461H6.15384V0H9.84615V1.23077H12.3077V2.46154H13.5385V3.69231H14.7692V6.15385H16ZM4.92308 8.61539H7.38461H8.61538V3.69231H7.38461V7.38462H4.92308V8.61539ZM2.46154 3.69231H1.23077V6.15385H2.46154V3.69231ZM6.15384 1.23077H3.69231V2.46154H6.15384V1.23077Z" fill="black"/>
</svg>
