<svg width="18" height="23" viewBox="0 0 18 23" fill="none" xmlns="http://www.w3.org/2000/svg">
<path d="M6.93415 4.13187H5.36272V2.56044H6.93415V4.13187ZM5.36272 10.4176H6.93415V11.989H11.6484V10.4176H13.2199V8.84616H14.7913V4.13187H13.2199V2.56044H11.6484V0.989014H6.93415V2.56044H10.077V4.13187H6.93415V7.27473H5.36272V4.13187H3.7913V8.84616H5.36272V10.4176ZM3.7913 15.1319H2.21987V16.7033H3.7913V15.1319ZM16.3627 16.7033V15.1319H14.7913V13.5604H3.7913V15.1319H8.50558V16.7033H3.7913V18.2747H2.21987V16.7033H0.648438V21.4176H2.21987V22.989H16.3627V21.4176H17.9342V16.7033H16.3627Z" fill="#E94E1B"/>
</svg>
